<svg width="80.000000" height="151.000000" viewBox="0 0 80 151" fill="none" xmlns="http://www.w3.org/2000/svg" xmlns:xlink="http://www.w3.org/1999/xlink">
	<desc>
			Created with Pixso.
	</desc>
	<defs>
		<clipPath id="clip14_144">
			<rect id="16-plus" width="32.000000" height="32.000000" transform="translate(39.000000 9.000000)" fill="white" fill-opacity="0"/>
		</clipPath>
	</defs>
	<rect width="80.000000" height="151.000000"/>
	<mask id="mask_14_139" fill="white">
		<path id="Subtract" d="M14 45L14 10L12 10L12 45L14 45ZM33 64C22.5066 64 14 55.4934 14 45L12 45C12 56.598 21.402 66 33 66L33 64ZM70 64L33 64L33 66L70 66L70 64ZM79 75L79 131L81 131L81 75L79 75ZM79 131C79 141.493 70.4934 150 60 150L60 152C71.598 152 81 142.598 81 131L79 131ZM60 150L-549 150L-549 152L60 152L60 150ZM-549 150C-559.493 150 -568 141.493 -568 131L-570 131C-570 142.598 -560.598 152 -549 152L-549 150ZM-568 131L-568 20L-570 20L-570 131L-568 131ZM-568 20C-568 9.50659 -559.493 1 -549 1L-549 -1C-560.598 -1 -570 8.40201 -570 20L-568 20ZM-549 1L5.20386 1L5.20386 -1L-549 -1L-549 1ZM70 66C74.9706 66 79 70.0294 79 75L81 75C81 68.9249 76.0752 64 70 64L70 66ZM14 10C14 7.46844 13.1504 4.76508 11.6606 2.67511C10.1688 0.582214 7.94873 -1 5.20386 -1L5.20386 1C7.11096 1 8.78882 2.09186 10.0321 3.836C11.2773 5.58307 12 7.8797 12 10L14 10Z" fill="" fill-opacity="1.000000" fill-rule="nonzero"/>
	</mask>
	<path id="Subtract" d="M-570 21L-570 131C-570 131.335 -569.992 131.669 -569.977 132C-569.47 142.802 -560.802 151.47 -550 151.977C-549.669 151.992 -549.335 152 -549 152L60 152C60.3352 152 60.6686 151.992 61 151.977C71.8023 151.47 80.4702 142.802 80.9766 132C80.9921 131.669 81 131.335 81 131L81 75C81 74.6629 80.9848 74.3294 80.9552 74C80.4796 68.7229 76.2772 64.5204 71 64.0448C70.6706 64.0152 70.3371 64 70 64L33 64C32.6646 64 32.3312 63.9913 32 63.9741C22.3026 63.4713 14.5287 55.6974 14.0259 46C14.0087 45.6688 14 45.3354 14 45L14 10C14 9.66902 13.9855 9.3351 13.9569 9C13.7669 6.77204 12.9556 4.49183 11.6606 2.67511C10.3545 0.842669 8.49002 -0.598287 6.20386 -0.928554C5.87891 -0.975496 5.54545 -1 5.20386 -1L-549 -1C-549.335 -1 -549.669 -0.992145 -550 -0.97661C-560.802 -0.470192 -569.47 8.19774 -569.977 19C-569.992 19.3314 -570 19.6648 -570 20L-570 21ZM-567.974 19C-567.471 9.3026 -559.697 1.52871 -550 1.02586C-549.669 1.00869 -549.335 1 -549 1L5.20386 1C5.54491 1 5.87864 1.03492 6.20386 1.10224C7.69718 1.41139 9.01116 2.40377 10.0321 3.836C11.0836 5.31118 11.7624 7.17818 11.9482 9C11.9825 9.33578 12 9.67002 12 10L12 45C12 45.3352 12.0079 45.6686 12.0234 46C12.5298 56.8022 21.1977 65.4702 32 65.9766C32.3314 65.9921 32.6648 66 33 66L70 66C70.338 66 70.6717 66.0186 71 66.0549C75.1716 66.5161 78.4839 69.8284 78.9451 74C78.9814 74.3283 79 74.662 79 75L79 131C79 131.335 78.9913 131.669 78.9741 132C78.4713 141.697 70.6974 149.471 61 149.974C60.6688 149.991 60.3354 150 60 150L-549 150C-549.335 150 -549.669 149.991 -550 149.974C-559.697 149.471 -567.471 141.697 -567.974 132C-567.991 131.669 -568 131.335 -568 131L-568 20C-568 19.6646 -567.991 19.3312 -567.974 19Z" clip-rule="evenodd" fill="#FFFFFF" fill-opacity="1.000000" fill-rule="evenodd"/>
</svg>
