<svg width="68.000000" height="71.000000" viewBox="0 0 68 71" fill="none" xmlns="http://www.w3.org/2000/svg" xmlns:xlink="http://www.w3.org/1999/xlink">
	<desc>
			Created with Pixso.
	</desc>
	<defs/>
	<rect width="68.000000" height="71.000000"/>
	<path id="Subtract" d="M-1564.91 0L334.916 0C340.485 0 345 4.47716 345 10L345 95C344.471 81.6565 333.375 71 319.79 71L61.5906 71C56.4844 71 52.2904 67.1688 50.7941 62.3276C44.472 41.8731 25.2775 27 2.57971 27L-1023.58 27C-1046.28 27 -1065.47 41.8731 -1071.79 62.3276C-1073.29 67.1689 -1077.48 71 -1082.59 71L-1549.79 71C-1563.38 71 -1574.45 81.6565 -1574.98 95L-1575 10.0021C-1575 4.47841 -1570.48 0 -1564.91 0Z" clip-rule="evenodd" fill="#7027E2" fill-opacity="1.000000" fill-rule="evenodd"/>
</svg>
