<svg width="26.000000" height="24.000000" viewBox="0 0 26 24" fill="none" xmlns="http://www.w3.org/2000/svg" xmlns:xlink="http://www.w3.org/1999/xlink">
	<desc>
			Created with Pixso.
	</desc>
	<defs/>
	<rect width="26.000000" height="24.000000"/>
	<path id="Subtract" d="M-1883.91 -72L15.9159 -72C21.4851 -72 25.9999 -67.5228 25.9999 -62L25.9999 23C25.4706 9.65646 14.3751 -1 0.789795 -1L-257.409 -1C-262.516 -1 -266.71 -4.83116 -268.206 -9.67239C-274.528 -30.1269 -293.723 -45 -316.42 -45L-1342.58 -45C-1365.28 -45 -1384.47 -30.1269 -1390.79 -9.67236C-1392.29 -4.83113 -1396.48 -1 -1401.59 -1L-1868.79 -1C-1882.38 -1 -1893.45 9.65647 -1893.98 23L-1894 -61.9979C-1894 -67.5216 -1889.48 -72 -1883.91 -72Z" clip-rule="evenodd" fill="#7027E2" fill-opacity="1.000000" fill-rule="evenodd"/>
</svg>
