<svg width="1162.000000" height="95.000000" viewBox="0 0 1162 95" fill="none" xmlns="http://www.w3.org/2000/svg" xmlns:xlink="http://www.w3.org/1999/xlink">
	<desc>
			Created with Pixso.
	</desc>
	<defs/>
	<rect width="1162.000000" height="95.000000"/>
	<path id="Subtract" d="M-473.914 -1L1425.92 -1C1431.49 -1 1436 3.47716 1436 9L1436 94C1435.47 80.6565 1424.38 70 1410.79 70L1152.59 70C1147.48 70 1143.29 66.1688 1141.79 61.3276C1135.47 40.8731 1116.28 26 1093.58 26L67.4201 26C44.7224 26 25.5276 40.8731 19.2057 61.3276C17.7093 66.1689 13.5154 70 8.4093 70L-458.79 70C-472.375 70 -483.451 80.6565 -483.98 94L-483.998 9.00206C-483.998 3.47841 -479.484 -1 -473.914 -1Z" clip-rule="evenodd" fill="#7027E2" fill-opacity="1.000000" fill-rule="evenodd"/>
</svg>
