<svg width="68.000000" height="71.000000" viewBox="0 0 68 71" fill="none" xmlns="http://www.w3.org/2000/svg" xmlns:xlink="http://www.w3.org/1999/xlink">
	<desc>
			Created with Pixso.
	</desc>
	<defs/>
	<rect width="68.000000" height="71.000000"/>
	<path id="Subtract" d="M-477.914 0L1421.92 0C1427.49 0 1432 4.47716 1432 10L1432 95C1431.47 81.6565 1420.38 71 1406.79 71L1148.59 71C1143.48 71 1139.29 67.1688 1137.79 62.3276C1131.47 41.8731 1112.28 27 1089.58 27L63.4201 27C40.7224 27 21.5276 41.8731 15.2057 62.3276C13.7093 67.1689 9.51538 71 4.4093 71L-462.79 71C-476.375 71 -487.451 81.6565 -487.98 95L-487.998 10.0021C-487.998 4.47841 -483.484 0 -477.914 0Z" clip-rule="evenodd" fill="#7027E2" fill-opacity="1.000000" fill-rule="evenodd"/>
</svg>
